<svg xmlns="http://www.w3.org/2000/svg" width="33.898" height="37.331" viewBox="0 0 33.898 37.331">
  <g id="Icon_feather-share-2" data-name="Icon feather-share-2" transform="translate(1.5 1.5)">
    <path id="Path_1" data-name="Path 1" d="M32.8,8.15A5.15,5.15,0,1,1,27.65,3,5.15,5.15,0,0,1,32.8,8.15Z" transform="translate(-1.901 -3)" fill="none" stroke="#000" stroke-linecap="round" stroke-linejoin="round" stroke-width="3"/>
    <path id="Path_2" data-name="Path 2" d="M14.8,18.65A5.15,5.15,0,1,1,9.65,13.5,5.15,5.15,0,0,1,14.8,18.65Z" transform="translate(-4.5 -1.484)" fill="none" stroke="#000" stroke-linecap="round" stroke-linejoin="round" stroke-width="3"/>
    <path id="Path_3" data-name="Path 3" d="M32.8,29.15A5.15,5.15,0,1,1,27.65,24,5.15,5.15,0,0,1,32.8,29.15Z" transform="translate(-1.901 0.032)" fill="none" stroke="#000" stroke-linecap="round" stroke-linejoin="round" stroke-width="3"/>
    <path id="Path_4" data-name="Path 4" d="M12.885,20.265,24.609,27.1" transform="translate(-3.289 -0.507)" fill="none" stroke="#000" stroke-linecap="round" stroke-linejoin="round" stroke-width="3"/>
    <path id="Path_5" data-name="Path 5" d="M24.592,9.765,12.885,16.6" transform="translate(-3.289 -2.023)" fill="none" stroke="#000" stroke-linecap="round" stroke-linejoin="round" stroke-width="3"/>
  </g>
</svg>
